<svg width="1000" height="60" viewBox="0 0 1000 60" fill="none" xmlns="http://www.w3.org/2000/svg">
<g filter="url(#filter0_b_3_11)">
<mask id="path-1-inside-1_3_11" fill="white">
<path fill-rule="evenodd" clip-rule="evenodd" d="M0 30C0 13.4315 13.4315 0 30 0H970C986.569 0 1000 13.4315 1000 30C1000 46.5685 986.569 60 970 60H30C13.4314 60 0 46.5685 0 30ZM50 30C50 41.0457 41.0457 50 30 50C18.9543 50 10 41.0457 10 30C10 18.9543 18.9543 10 30 10C41.0457 10 50 18.9543 50 30ZM969 50C980.046 50 989 41.0457 989 30C989 18.9543 980.046 10 969 10C957.954 10 949 18.9543 949 30C949 41.0457 957.954 50 969 50ZM939 30C939 41.0457 930.046 50 919 50C907.954 50 899 41.0457 899 30C899 18.9543 907.954 10 919 10C930.046 10 939 18.9543 939 30ZM869 50C880.046 50 889 41.0457 889 30C889 18.9543 880.046 10 869 10C857.954 10 849 18.9543 849 30C849 41.0457 857.954 50 869 50Z"/>
</mask>
<path fill-rule="evenodd" clip-rule="evenodd" d="M0 30C0 13.4315 13.4315 0 30 0H970C986.569 0 1000 13.4315 1000 30C1000 46.5685 986.569 60 970 60H30C13.4314 60 0 46.5685 0 30ZM50 30C50 41.0457 41.0457 50 30 50C18.9543 50 10 41.0457 10 30C10 18.9543 18.9543 10 30 10C41.0457 10 50 18.9543 50 30ZM969 50C980.046 50 989 41.0457 989 30C989 18.9543 980.046 10 969 10C957.954 10 949 18.9543 949 30C949 41.0457 957.954 50 969 50ZM939 30C939 41.0457 930.046 50 919 50C907.954 50 899 41.0457 899 30C899 18.9543 907.954 10 919 10C930.046 10 939 18.9543 939 30ZM869 50C880.046 50 889 41.0457 889 30C889 18.9543 880.046 10 869 10C857.954 10 849 18.9543 849 30C849 41.0457 857.954 50 869 50Z" fill="#D9D9D9" fill-opacity="0.5"/>
<path d="M30 -1C12.8792 -1 -1 12.8792 -1 30H1C1 13.9837 13.9837 1 30 1V-1ZM970 -1H30V1H970V-1ZM1001 30C1001 12.8792 987.121 -1 970 -1V1C986.016 1 999 13.9837 999 30H1001ZM970 61C987.121 61 1001 47.1208 1001 30H999C999 46.0163 986.016 59 970 59V61ZM30 61H970V59H30V61ZM-1 30C-1 47.1208 12.8791 61 30 61V59C13.9837 59 1 46.0163 1 30H-1ZM30 51C41.598 51 51 41.598 51 30H49C49 40.4934 40.4934 49 30 49V51ZM9 30C9 41.598 18.402 51 30 51V49C19.5066 49 11 40.4934 11 30H9ZM30 9C18.402 9 9 18.402 9 30H11C11 19.5066 19.5066 11 30 11V9ZM51 30C51 18.402 41.598 9 30 9V11C40.4934 11 49 19.5066 49 30H51ZM988 30C988 40.4934 979.493 49 969 49V51C980.598 51 990 41.598 990 30H988ZM969 11C979.493 11 988 19.5066 988 30H990C990 18.402 980.598 9 969 9V11ZM950 30C950 19.5066 958.507 11 969 11V9C957.402 9 948 18.402 948 30H950ZM969 49C958.507 49 950 40.4934 950 30H948C948 41.598 957.402 51 969 51V49ZM919 51C930.598 51 940 41.598 940 30H938C938 40.4934 929.493 49 919 49V51ZM898 30C898 41.598 907.402 51 919 51V49C908.507 49 900 40.4934 900 30H898ZM919 9C907.402 9 898 18.402 898 30H900C900 19.5066 908.507 11 919 11V9ZM940 30C940 18.402 930.598 9 919 9V11C929.493 11 938 19.5066 938 30H940ZM888 30C888 40.4934 879.493 49 869 49V51C880.598 51 890 41.598 890 30H888ZM869 11C879.493 11 888 19.5066 888 30H890C890 18.402 880.598 9 869 9V11ZM850 30C850 19.5066 858.507 11 869 11V9C857.402 9 848 18.402 848 30H850ZM869 49C858.507 49 850 40.4934 850 30H848C848 41.598 857.402 51 869 51V49Z" fill="white" fill-opacity="0.6" mask="url(#path-1-inside-1_3_11)"/>
</g>
<defs>
<filter id="filter0_b_3_11" x="-20" y="-20" width="1040" height="100" filterUnits="userSpaceOnUse" color-interpolation-filters="sRGB">
<feFlood flood-opacity="0" result="BackgroundImageFix"/>
<feGaussianBlur in="BackgroundImageFix" stdDeviation="10"/>
<feComposite in2="SourceAlpha" operator="in" result="effect1_backgroundBlur_3_11"/>
<feBlend mode="normal" in="SourceGraphic" in2="effect1_backgroundBlur_3_11" result="shape"/>
</filter>
</defs>
</svg>
